<?xml version="1.0" encoding="UTF-8" standalone="no"?>
<!DOCTYPE svg PUBLIC "-//W3C//DTD SVG 1.1//EN" "http://www.w3.org/Graphics/SVG/1.1/DTD/svg11.dtd">
<svg width="100%" height="100%" viewBox="0 0 1077 113" version="1.1" xmlns="http://www.w3.org/2000/svg" xmlns:xlink="http://www.w3.org/1999/xlink" xml:space="preserve" xmlns:serif="http://www.serif.com/" style="fill-rule:evenodd;clip-rule:evenodd;stroke-linejoin:round;stroke-miterlimit:2;">
    <g transform="matrix(4.16667,0,0,4.16667,298.979,39.0796)">
        <path d="M0,8.13C1.201,8.923 2.712,9.547 4.626,10.04C5.039,10.476 5.686,10.72 6.315,10.959C7.084,11.255 7.882,11.56 8.257,12.245C8.201,12.446 7.957,12.526 7.694,12.606C7.488,12.676 7.263,12.747 7.15,12.921C7.141,12.963 7.122,12.986 7.112,13.009C7.094,13.056 7.075,13.099 7.103,13.141C7.131,13.197 7.197,13.202 7.469,13.216C7.516,13.221 7.572,13.221 7.638,13.221C8.154,13.221 9.627,13.099 9.787,12.719C9.355,12.292 8.97,11.874 8.604,11.471C7.591,10.373 6.549,9.237 4.654,8.979C4.382,8.735 4.007,8.459 3.641,8.182C2.928,7.651 2.196,7.108 2.074,6.784C1.923,5.934 1.558,5.676 1.173,5.404C1.013,5.292 0.854,5.174 0.694,5.01C0.356,4.166 0.628,3.687 0.938,3.129C1.22,2.622 1.548,2.049 1.36,1.116C2.102,1.107 2.365,1.013 2.806,0.633C3.012,0.45 3.087,-0.005 2.993,-0.526C2.909,-0.991 2.674,-1.544 2.271,-1.699C2.064,-1.774 1.849,-1.811 1.604,-1.811C1.22,-1.811 0.835,-1.723 0.422,-1.629C0.31,-1.605 0.188,-1.577 0.065,-1.549C-0.009,-2.084 0.019,-2.675 0.056,-3.304C0.084,-3.881 0.112,-4.472 0.075,-5.115C0.741,-5.363 0.497,-6.269 0.328,-6.874C0.291,-7.015 0.253,-7.146 0.234,-7.249C0.225,-7.325 0.169,-7.362 0.075,-7.362C0.075,-7.362 -0.066,-7.352 -0.094,-7.352C-0.751,-6.836 -0.732,-6.123 -0.704,-5.438C-0.694,-5.232 -0.685,-5.03 -0.694,-4.833C-0.704,-4.603 -0.779,-4.369 -0.845,-4.125C-0.92,-3.895 -0.985,-3.656 -1.014,-3.402C-1.145,-2.032 -0.826,-0.54 -0.61,0.445C-0.573,0.614 -0.544,0.774 -0.516,0.914C-1.68,1.759 -2.187,2.974 -2.036,4.574C-1.933,5.034 -1.773,5.282 -1.652,5.465C-1.52,5.672 -1.464,5.756 -1.624,5.972C-1.68,5.953 -1.764,5.953 -1.858,5.953L-1.905,5.953C-2.093,5.953 -2.29,5.948 -2.478,5.948C-2.674,5.944 -2.872,5.939 -3.059,5.939C-3.707,5.939 -4.363,5.981 -4.795,6.277C-5.199,7.088 -5.067,7.989 -4.926,8.946C-4.823,9.683 -4.72,10.448 -4.814,11.259C-4.842,11.79 -5.377,12.02 -5.846,12.226C-6.25,12.4 -6.606,12.554 -6.568,12.859C-6.559,12.967 -6.409,12.967 -6.353,12.967C-6.174,12.967 -5.893,12.916 -5.583,12.864C-5.33,12.822 -5.058,12.775 -4.814,12.752C-4.71,12.737 -4.617,12.737 -4.532,12.737C-4.363,12.737 -4.223,12.752 -4.12,12.766C-4.044,12.775 -3.988,12.779 -3.941,12.779C-3.904,12.779 -3.875,12.775 -3.857,12.77C-3.716,12.723 -3.584,12.573 -3.519,12.4C-3.472,12.263 -3.435,12.057 -3.575,11.827C-3.932,11.222 -3.753,10.082 -3.584,9.073C-3.5,8.543 -3.425,8.036 -3.435,7.651C-2.872,7.671 -2.402,7.783 -1.952,7.891C-1.436,8.013 -0.91,8.139 -0.272,8.139C-0.178,8.139 -0.094,8.135 0,8.13M1.088,17.509C-6.325,17.509 -12.358,11.475 -12.358,4.063C-12.358,-3.35 -6.325,-9.379 1.088,-9.379C8.501,-9.379 14.525,-3.35 14.525,4.063C14.525,11.475 8.501,17.509 1.088,17.509" style="fill:rgb(26,24,27);fill-rule:nonzero;"/>
    </g>
    <g transform="matrix(4.16667,0,0,4.16667,179.574,51.9792)">
        <path d="M0,1.933C0.197,2.322 0.314,2.764 0.437,3.233C0.488,3.42 0.535,3.608 0.591,3.796C0.647,3.997 0.718,4.204 0.788,4.415C0.948,4.912 1.117,5.419 1.182,5.912C1.206,6.122 1.192,6.334 1.173,6.554C1.154,6.803 1.135,7.061 1.182,7.309C1.206,7.469 1.29,7.643 1.379,7.826C1.44,7.948 1.501,8.075 1.548,8.196C1.849,9.079 1.942,9.839 1.839,10.523C1.999,10.674 2.079,10.843 2.163,11.021C2.252,11.213 2.346,11.41 2.524,11.528C2.618,11.546 2.679,11.546 2.735,11.546C2.998,11.546 3.209,11.471 3.392,11.302C3.388,10.997 3.237,10.814 3.092,10.631C2.989,10.505 2.881,10.373 2.825,10.219C2.604,9.637 2.642,8.961 2.684,8.244C2.712,7.723 2.745,7.183 2.679,6.634C2.651,6.395 2.585,6.188 2.52,5.991C2.458,5.808 2.402,5.635 2.388,5.461C2.336,4.95 2.421,4.565 2.5,4.19C2.552,3.955 2.599,3.73 2.609,3.491C2.623,3.017 2.59,2.407 2.529,2.008C2.463,1.548 2.29,0.995 2.121,0.46C1.961,-0.052 1.806,-0.53 1.75,-0.924C1.633,-1.764 1.703,-2.224 1.867,-2.731C1.961,-3.017 2.018,-3.294 2.069,-3.561C2.121,-3.833 2.172,-4.091 2.261,-4.344C2.271,-4.326 2.309,-4.326 2.355,-4.326L2.402,-4.326C2.557,-4.326 2.726,-4.302 2.895,-4.279C3.068,-4.255 3.247,-4.232 3.401,-4.232C3.439,-4.232 3.472,-4.236 3.509,-4.236C4.373,-4.297 5.217,-4.837 5.672,-5.278C5.794,-5.93 5.724,-6.536 5.654,-7.075C5.583,-7.657 5.522,-8.164 5.71,-8.52L5.71,-8.506C5.714,-8.506 5.714,-8.544 5.719,-8.614C5.719,-8.656 5.719,-8.708 5.724,-8.722L5.667,-8.68L5.724,-8.741C5.714,-8.849 5.705,-9.008 5.696,-9.149L5.687,-9.304C5.499,-9.477 5.316,-9.543 5.104,-9.543C4.912,-9.543 4.706,-9.491 4.434,-9.379C4.401,-9.257 4.387,-9.177 4.377,-9.097C4.349,-8.914 4.316,-8.684 4.419,-8.412C4.776,-8.108 4.683,-7.497 4.579,-6.85C4.542,-6.606 4.5,-6.358 4.48,-6.113C4.443,-6.118 4.41,-6.123 4.373,-6.123C4.171,-6.123 3.974,-6.062 3.782,-6.001C3.589,-5.944 3.392,-5.883 3.19,-5.883C3.003,-5.893 2.872,-5.944 2.745,-5.996C2.613,-6.047 2.477,-6.099 2.336,-6.104C2.271,-6.109 2.21,-6.109 2.149,-6.109L1.68,-6.104C1.271,-6.104 1.018,-6.155 0.835,-6.446C0.699,-6.615 0.685,-6.747 0.779,-6.883L0.858,-6.981C1.004,-7.164 1.056,-7.234 1.065,-7.587C1.084,-8.126 0.929,-8.619 0.657,-8.905C0.479,-9.092 0.249,-9.187 -0.005,-9.187L-0.094,-9.187C-0.347,-9.163 -0.563,-9.041 -0.741,-8.811C-1.027,-8.455 -1.145,-7.892 -1.098,-7.582C-1.056,-7.3 -0.957,-7.155 -0.887,-7.047C-0.84,-6.981 -0.807,-6.93 -0.797,-6.869C-0.723,-6.385 -0.962,-6.128 -1.567,-6.034C-1.595,-6.029 -1.624,-6.024 -1.651,-6.024C-1.75,-6.024 -1.863,-6.043 -1.975,-6.067C-2.102,-6.085 -2.229,-6.109 -2.346,-6.109C-2.543,-6.099 -2.74,-6.076 -2.946,-6.052C-3.223,-6.024 -3.509,-5.991 -3.777,-5.991C-4.124,-5.991 -4.373,-6.047 -4.532,-6.17C-4.5,-6.531 -4.561,-6.864 -4.621,-7.192C-4.678,-7.493 -4.734,-7.807 -4.729,-8.178C-4.588,-8.215 -4.401,-8.408 -4.358,-8.548C-4.331,-8.642 -4.335,-8.698 -4.345,-8.755C-4.354,-8.91 -4.354,-9.027 -4.349,-9.139C-4.345,-9.243 -4.345,-9.341 -4.349,-9.435C-4.556,-9.59 -4.729,-9.642 -4.908,-9.642C-5.151,-9.642 -5.372,-9.543 -5.583,-9.444L-5.672,-9.407L-5.705,-9.351C-5.705,-9.351 -5.743,-8.741 -5.705,-8.703C-5.489,-8.159 -5.564,-7.554 -5.639,-6.911C-5.71,-6.358 -5.78,-5.785 -5.644,-5.231C-5.029,-4.743 -4.044,-4.255 -3.059,-4.255C-2.768,-4.255 -2.486,-4.302 -2.224,-4.387C-2.079,-4.18 -2.069,-3.913 -2.055,-3.599C-2.05,-3.463 -2.045,-3.322 -2.022,-3.181C-1.999,-3.036 -1.989,-2.909 -1.975,-2.777C-1.961,-2.609 -1.942,-2.435 -1.905,-2.229C-1.815,-1.745 -1.891,-1.065 -1.98,-0.633C-2.153,0.206 -2.304,0.971 -2.421,1.867C-2.486,2.43 -2.515,3.312 -2.421,4.007C-2.393,4.204 -2.332,4.372 -2.271,4.541C-2.2,4.729 -2.135,4.908 -2.125,5.1C-2.111,5.316 -2.167,5.564 -2.219,5.827C-2.271,6.062 -2.322,6.301 -2.341,6.564C-2.397,7.192 -2.346,7.877 -2.299,8.483C-2.257,9.059 -2.219,9.609 -2.275,10.007C-2.304,10.237 -2.463,10.43 -2.613,10.613C-2.787,10.824 -2.951,11.021 -2.932,11.269C-2.768,11.457 -2.534,11.537 -2.219,11.537L-2.144,11.537C-1.952,11.485 -1.891,11.34 -1.83,11.199C-1.806,11.129 -1.773,11.063 -1.731,11.002C-1.68,10.932 -1.628,10.88 -1.576,10.833C-1.482,10.744 -1.394,10.655 -1.356,10.467C-1.323,10.284 -1.351,10.068 -1.389,9.839C-1.417,9.627 -1.45,9.412 -1.431,9.215C-1.394,8.886 -1.262,8.539 -1.135,8.206C-1.013,7.887 -0.882,7.558 -0.84,7.235C-0.807,6.986 -0.84,6.737 -0.873,6.498C-0.901,6.296 -0.929,6.104 -0.915,5.912C-0.905,5.728 -0.835,5.564 -0.765,5.386C-0.713,5.255 -0.657,5.119 -0.619,4.969C-0.521,4.518 -0.45,4.086 -0.38,3.669C-0.281,3.059 -0.183,2.477 0,1.933M0.042,14.408C-7.371,14.408 -13.399,8.379 -13.399,0.967C-13.399,-6.446 -7.371,-12.475 0.042,-12.475C7.455,-12.475 13.484,-6.446 13.484,0.967C13.484,8.379 7.455,14.408 0.042,14.408" style="fill:rgb(26,24,27);fill-rule:nonzero;"/>
    </g>
    <g transform="matrix(4.16667,0,0,4.16667,52.625,78.625)">
        <path d="M0,-10.857C0.033,-10.43 0.037,-10.228 0.042,-9.942L0.047,-9.806L0.065,-9.44C0.084,-9.008 0.108,-8.6 0.047,-8.215C-0.01,-7.816 -0.192,-7.446 -0.366,-7.085C-0.507,-6.794 -0.638,-6.517 -0.704,-6.245C-0.774,-5.931 -0.76,-5.682 -0.751,-5.438C-0.742,-5.208 -0.728,-4.987 -0.798,-4.739C-0.845,-4.556 -0.976,-4.354 -1.098,-4.162C-1.197,-4.012 -1.295,-3.861 -1.361,-3.711C-1.436,-3.538 -1.497,-3.345 -1.558,-3.153C-1.643,-2.895 -1.717,-2.647 -1.825,-2.496C-2.022,-2.21 -2.313,-2.069 -2.646,-1.91C-2.923,-1.778 -3.228,-1.628 -3.514,-1.375C-3.791,-1.131 -4.016,-0.798 -4.232,-0.479C-4.528,-0.043 -4.828,0.413 -5.288,0.689C-5.424,0.769 -5.616,0.807 -5.804,0.844C-6.104,0.905 -6.39,0.966 -6.447,1.191C-6.517,1.497 -6.357,1.764 -6.193,2.045C-6.071,2.252 -5.945,2.468 -5.893,2.712C-5.865,2.867 -5.851,3.007 -5.837,3.139C-5.794,3.58 -5.762,3.899 -5.194,3.899C-4.945,3.678 -5.03,3.518 -5.109,3.364C-5.17,3.256 -5.227,3.143 -5.208,3.002C-4.875,1.646 -3.913,0.924 -2.984,0.225C-2.834,0.112 -2.708,0.004 -2.576,-0.108C-2.393,-0.268 -2.215,-0.418 -2.032,-0.535C-1.896,-0.629 -1.722,-0.69 -1.553,-0.746C-1.356,-0.816 -1.154,-0.887 -0.995,-1.014C-0.826,-1.136 -0.69,-1.342 -0.559,-1.539C-0.483,-1.656 -0.408,-1.769 -0.329,-1.863C-0.211,-1.999 -0.094,-2.13 0.023,-2.257C0.164,-2.412 0.305,-2.562 0.427,-2.712C0.657,-2.994 0.844,-3.298 1.027,-3.594C1.238,-3.932 1.459,-4.284 1.74,-4.593C2.041,-4.542 2.411,-4.528 2.777,-4.518C3.279,-4.5 3.795,-4.481 4.241,-4.406C3.908,-3.951 3.744,-3.425 3.589,-2.919C3.453,-2.482 3.312,-2.036 3.068,-1.647C2.979,-1.502 2.853,-1.375 2.721,-1.239C2.421,-0.939 2.111,-0.624 2.209,-0.104C2.369,0.103 2.618,0.164 2.862,0.22C2.979,0.248 3.092,0.272 3.19,0.314C3.477,0.554 4.34,1.027 4.79,1.027C4.978,1.027 5.043,0.943 5.067,0.868C5.128,0.662 4.903,0.446 4.612,0.169C4.292,-0.136 3.927,-0.483 3.922,-0.868C3.917,-1.375 4.452,-1.957 4.926,-2.473C5.029,-2.586 5.405,-3.003 5.405,-3.003C5.925,-3.575 6.639,-4.359 6.559,-4.922C6.479,-5.415 5.508,-5.926 4.931,-6.231L4.837,-6.278C4.495,-6.461 4.114,-6.559 3.744,-6.658C3.308,-6.771 2.895,-6.878 2.627,-7.104C2.684,-7.3 2.726,-7.667 2.768,-8.042C2.833,-8.638 2.899,-9.248 2.974,-9.492C2.979,-9.44 3.213,-9.187 3.406,-8.961C3.425,-8.942 3.805,-8.521 4.166,-8.521C4.199,-8.521 4.227,-8.525 4.255,-8.53C4.588,-8.6 5.104,-9.642 5.7,-10.895L5.799,-11.101C5.86,-11.237 5.925,-11.368 5.991,-11.49C6.216,-11.936 6.414,-12.325 6.362,-12.64C6.319,-13.001 6.137,-13.292 5.864,-13.433L5.803,-13.447C5.658,-13.447 5.583,-13.212 5.489,-12.912C5.423,-12.705 5.348,-12.476 5.254,-12.354C5.269,-12.377 5.222,-12.442 5.193,-12.485C5.123,-12.584 5.062,-12.672 4.982,-12.672C4.931,-12.672 4.889,-12.635 4.86,-12.565C4.828,-12.485 4.851,-12.433 4.879,-12.363C4.926,-12.255 5.006,-12.072 4.992,-11.542C4.94,-11.345 4.461,-10.345 4.1,-9.951C3.565,-10.65 2.857,-11.584 2.505,-12.461C2.599,-12.494 2.745,-12.555 2.885,-12.611C3.049,-12.682 3.218,-12.753 3.34,-12.874C3.824,-13.531 3.734,-14.427 3.453,-14.981C3.223,-15.431 2.866,-15.69 2.477,-15.69C2.341,-15.69 2.2,-15.661 2.06,-15.6C1.163,-15.201 1.173,-14.774 1.206,-13.737C1.21,-13.512 1.22,-13.254 1.22,-12.959C0.619,-12.715 -1.487,-11.683 -2.037,-10.726C-2.327,-10.345 -2.098,-9.721 -1.872,-9.111C-1.755,-8.793 -1.633,-8.455 -1.6,-8.183C-1.577,-7.958 -1.572,-7.812 -1.567,-7.709C-1.553,-7.441 -1.544,-7.427 -1.314,-7.277C-1.234,-7.221 -1.122,-7.15 -0.967,-7.033C-0.681,-7.127 -0.422,-7.286 -0.427,-7.638C-0.371,-7.751 -0.375,-7.765 -0.413,-7.906L-0.456,-8.051C-0.568,-8.178 -0.615,-8.253 -0.671,-8.347C-0.695,-8.384 -0.718,-8.422 -0.746,-8.469C-0.995,-8.849 -1.089,-9.346 -1.173,-9.825L-1.225,-10.102C-1.271,-10.341 -0.793,-10.528 -0.413,-10.683C-0.258,-10.739 -0.113,-10.8 0,-10.857M0.812,8.013C-6.602,8.013 -12.63,1.984 -12.63,-5.428C-12.63,-12.841 -6.602,-18.87 0.812,-18.87C8.224,-18.87 14.253,-12.841 14.253,-5.428C14.253,1.984 8.224,8.013 0.812,8.013" style="fill:rgb(26,24,27);fill-rule:nonzero;"/>
    </g>
    <g transform="matrix(4.16667,0,0,4.16667,179.574,51.9792)">
        <path d="M0,1.933C0.197,2.322 0.314,2.764 0.437,3.233C0.488,3.42 0.535,3.608 0.591,3.796C0.647,3.997 0.718,4.204 0.788,4.415C0.948,4.912 1.117,5.419 1.182,5.912C1.206,6.122 1.192,6.334 1.173,6.554C1.154,6.803 1.135,7.061 1.182,7.309C1.206,7.469 1.29,7.643 1.379,7.826C1.44,7.948 1.501,8.075 1.548,8.196C1.849,9.079 1.942,9.839 1.839,10.523C1.999,10.674 2.079,10.843 2.163,11.021C2.252,11.213 2.346,11.41 2.524,11.528C2.618,11.546 2.679,11.546 2.735,11.546C2.998,11.546 3.209,11.471 3.392,11.302C3.388,10.997 3.237,10.814 3.092,10.631C2.989,10.505 2.881,10.373 2.825,10.219C2.604,9.637 2.642,8.961 2.684,8.244C2.712,7.723 2.745,7.183 2.679,6.634C2.651,6.395 2.585,6.188 2.52,5.991C2.458,5.808 2.402,5.635 2.388,5.461C2.336,4.95 2.421,4.565 2.5,4.19C2.552,3.955 2.599,3.73 2.609,3.491C2.623,3.017 2.59,2.407 2.529,2.008C2.463,1.548 2.29,0.995 2.121,0.46C1.961,-0.052 1.806,-0.53 1.75,-0.924C1.633,-1.764 1.703,-2.224 1.867,-2.731C1.961,-3.017 2.018,-3.294 2.069,-3.561C2.121,-3.833 2.172,-4.091 2.261,-4.344C2.271,-4.326 2.309,-4.326 2.355,-4.326L2.402,-4.326C2.557,-4.326 2.726,-4.302 2.895,-4.279C3.068,-4.255 3.247,-4.232 3.401,-4.232C3.439,-4.232 3.472,-4.236 3.509,-4.236C4.373,-4.297 5.217,-4.837 5.672,-5.278C5.794,-5.93 5.724,-6.536 5.654,-7.075C5.583,-7.657 5.522,-8.164 5.71,-8.52L5.71,-8.506C5.714,-8.506 5.714,-8.544 5.719,-8.614C5.719,-8.656 5.719,-8.708 5.724,-8.722L5.667,-8.68L5.724,-8.741C5.714,-8.849 5.705,-9.008 5.696,-9.149L5.687,-9.304C5.499,-9.477 5.316,-9.543 5.104,-9.543C4.912,-9.543 4.706,-9.491 4.434,-9.379C4.401,-9.257 4.387,-9.177 4.377,-9.097C4.349,-8.914 4.316,-8.684 4.419,-8.412C4.776,-8.108 4.683,-7.497 4.579,-6.85C4.542,-6.606 4.5,-6.358 4.48,-6.113C4.443,-6.118 4.41,-6.123 4.373,-6.123C4.171,-6.123 3.974,-6.062 3.782,-6.001C3.589,-5.944 3.392,-5.883 3.19,-5.883C3.003,-5.893 2.872,-5.944 2.745,-5.996C2.613,-6.047 2.477,-6.099 2.336,-6.104C2.271,-6.109 2.21,-6.109 2.149,-6.109L1.68,-6.104C1.271,-6.104 1.018,-6.155 0.835,-6.446C0.699,-6.615 0.685,-6.747 0.779,-6.883L0.858,-6.981C1.004,-7.164 1.056,-7.234 1.065,-7.587C1.084,-8.126 0.929,-8.619 0.657,-8.905C0.479,-9.092 0.249,-9.187 -0.005,-9.187L-0.094,-9.187C-0.347,-9.163 -0.563,-9.041 -0.741,-8.811C-1.027,-8.455 -1.145,-7.892 -1.098,-7.582C-1.056,-7.3 -0.957,-7.155 -0.887,-7.047C-0.84,-6.981 -0.807,-6.93 -0.797,-6.869C-0.723,-6.385 -0.962,-6.128 -1.567,-6.034C-1.595,-6.029 -1.624,-6.024 -1.651,-6.024C-1.75,-6.024 -1.863,-6.043 -1.975,-6.067C-2.102,-6.085 -2.229,-6.109 -2.346,-6.109C-2.543,-6.099 -2.74,-6.076 -2.946,-6.052C-3.223,-6.024 -3.509,-5.991 -3.777,-5.991C-4.124,-5.991 -4.373,-6.047 -4.532,-6.17C-4.5,-6.531 -4.561,-6.864 -4.621,-7.192C-4.678,-7.493 -4.734,-7.807 -4.729,-8.178C-4.588,-8.215 -4.401,-8.408 -4.358,-8.548C-4.331,-8.642 -4.335,-8.698 -4.345,-8.755C-4.354,-8.91 -4.354,-9.027 -4.349,-9.139C-4.345,-9.243 -4.345,-9.341 -4.349,-9.435C-4.556,-9.59 -4.729,-9.642 -4.908,-9.642C-5.151,-9.642 -5.372,-9.543 -5.583,-9.444L-5.672,-9.407L-5.705,-9.351C-5.705,-9.351 -5.743,-8.741 -5.705,-8.703C-5.489,-8.159 -5.564,-7.554 -5.639,-6.911C-5.71,-6.358 -5.78,-5.785 -5.644,-5.231C-5.029,-4.743 -4.044,-4.255 -3.059,-4.255C-2.768,-4.255 -2.486,-4.302 -2.224,-4.387C-2.079,-4.18 -2.069,-3.913 -2.055,-3.599C-2.05,-3.463 -2.045,-3.322 -2.022,-3.181C-1.999,-3.036 -1.989,-2.909 -1.975,-2.777C-1.961,-2.609 -1.942,-2.435 -1.905,-2.229C-1.815,-1.745 -1.891,-1.065 -1.98,-0.633C-2.153,0.206 -2.304,0.971 -2.421,1.867C-2.486,2.43 -2.515,3.312 -2.421,4.007C-2.393,4.204 -2.332,4.372 -2.271,4.541C-2.2,4.729 -2.135,4.908 -2.125,5.1C-2.111,5.316 -2.167,5.564 -2.219,5.827C-2.271,6.062 -2.322,6.301 -2.341,6.564C-2.397,7.192 -2.346,7.877 -2.299,8.483C-2.257,9.059 -2.219,9.609 -2.275,10.007C-2.304,10.237 -2.463,10.43 -2.613,10.613C-2.787,10.824 -2.951,11.021 -2.932,11.269C-2.768,11.457 -2.534,11.537 -2.219,11.537L-2.144,11.537C-1.952,11.485 -1.891,11.34 -1.83,11.199C-1.806,11.129 -1.773,11.063 -1.731,11.002C-1.68,10.932 -1.628,10.88 -1.576,10.833C-1.482,10.744 -1.394,10.655 -1.356,10.467C-1.323,10.284 -1.351,10.068 -1.389,9.839C-1.417,9.627 -1.45,9.412 -1.431,9.215C-1.394,8.886 -1.262,8.539 -1.135,8.206C-1.013,7.887 -0.882,7.558 -0.84,7.235C-0.807,6.986 -0.84,6.737 -0.873,6.498C-0.901,6.296 -0.929,6.104 -0.915,5.912C-0.905,5.728 -0.835,5.564 -0.765,5.386C-0.713,5.255 -0.657,5.119 -0.619,4.969C-0.521,4.518 -0.45,4.086 -0.38,3.669C-0.281,3.059 -0.183,2.477 0,1.933M0.042,14.408C-7.371,14.408 -13.399,8.379 -13.399,0.967C-13.399,-6.446 -7.371,-12.475 0.042,-12.475C7.455,-12.475 13.484,-6.446 13.484,0.967C13.484,8.379 7.455,14.408 0.042,14.408" style="fill:rgb(26,24,27);fill-rule:nonzero;"/>
    </g>
    <g transform="matrix(4.16667,0,0,4.16667,423.027,78.5415)">
        <path d="M0,-9.12L-4.795,-9.12L-4.795,-5.714L0,-5.714L0,-4.123L-4.795,-4.123L-4.795,1.591L-6.563,1.591L-6.563,-10.711L0,-10.711L0,-9.12Z" style="fill:rgb(26,24,27);fill-rule:nonzero;"/>
    </g>
    <g transform="matrix(-4.16667,0,0,4.16667,948.192,-49.8802)">
        <rect x="121.216" y="20.11" width="1.769" height="12.302" style="fill:rgb(26,24,27);"/>
    </g>
    <g transform="matrix(4.16667,0,0,4.16667,495.142,78.5415)">
        <path d="M0,-9.12L-4.255,-9.12L-4.255,1.591L-6.024,1.591L-6.024,-9.12L-10.279,-9.12L-10.279,-10.711L0,-10.711L0,-9.12Z" style="fill:rgb(26,24,27);fill-rule:nonzero;"/>
    </g>
    <g transform="matrix(4.16667,0,0,4.16667,551.68,33.9119)">
        <path d="M0,12.302L-1.521,12.302L-9.74,2.834L-9.74,12.302L-11.401,12.302L-11.401,0L-9.994,0L-1.661,9.525L-1.661,0L0,0L0,12.302Z" style="fill:rgb(26,24,27);fill-rule:nonzero;"/>
    </g>
    <g transform="matrix(4.16667,0,0,4.16667,596.856,78.5415)">
        <path d="M0,-9.12L-5.212,-9.12L-5.212,-5.409L-0.183,-5.409L-0.183,-3.819L-5.212,-3.819L-5.212,0.005L0.164,0.005L0.164,1.591L-6.977,1.591L-6.977,-10.711L0,-10.711L0,-9.12Z" style="fill:rgb(26,24,27);fill-rule:nonzero;"/>
    </g>
    <g transform="matrix(4.16667,0,0,4.16667,637.204,73.8902)">
        <path d="M0,-6.887C-1.046,-7.882 -2.055,-8.168 -2.885,-8.168C-4.021,-8.168 -4.837,-7.572 -4.837,-6.704C-4.837,-4.345 0.488,-4.382 0.488,-0.464C0.488,1.464 -0.971,2.867 -2.956,2.867C-4.293,2.867 -5.372,2.51 -6.404,1.732L-6.404,-0.502C-5.503,0.653 -4.363,1.281 -3.157,1.281C-1.783,1.281 -1.154,0.418 -1.154,-0.272C-1.154,-2.81 -6.475,-3.101 -6.475,-6.474C-6.475,-8.478 -4.992,-9.754 -2.745,-9.754C-1.806,-9.754 -0.863,-9.468 0,-8.89L0,-6.887Z" style="fill:rgb(26,24,27);fill-rule:nonzero;"/>
    </g>
    <g transform="matrix(4.16667,0,0,4.16667,679.137,73.8902)">
        <path d="M0,-6.887C-1.046,-7.882 -2.055,-8.168 -2.885,-8.168C-4.021,-8.168 -4.833,-7.572 -4.833,-6.704C-4.833,-4.345 0.483,-4.382 0.483,-0.464C0.483,1.464 -0.971,2.867 -2.96,2.867C-4.293,2.867 -5.372,2.51 -6.404,1.732L-6.404,-0.502C-5.499,0.653 -4.368,1.281 -3.158,1.281C-1.788,1.281 -1.154,0.418 -1.154,-0.272C-1.154,-2.81 -6.475,-3.101 -6.475,-6.474C-6.475,-8.478 -4.997,-9.754 -2.74,-9.754C-1.806,-9.754 -0.868,-9.468 0,-8.89L0,-6.887Z" style="fill:rgb(26,24,27);fill-rule:nonzero;"/>
    </g>
    <g transform="matrix(4.16667,0,0,4.16667,726.523,64.1181)">
        <path d="M0,-2.196L1.624,-2.196C2.473,-2.196 3.303,-2.557 3.303,-3.604C3.303,-4.523 2.707,-4.992 1.553,-4.992L0,-4.992L0,-2.196ZM2.435,-7.249C4.959,-7.249 6.456,-5.555 6.456,-3.712C6.456,-2.36 5.752,-1.352 4.35,-0.699C5.611,-0.071 5.991,1.445 7.723,5.053L4.35,5.053C3.026,2.421 2.543,0.056 0.882,0.056L0,0.056L0,5.053L-3.063,5.053L-3.063,-7.249L2.435,-7.249Z" style="fill:rgb(26,24,27);fill-rule:nonzero;"/>
    </g>
    <g transform="matrix(4.16667,0,0,4.16667,802.101,33.9119)">
        <path d="M0,12.302L-9.069,12.302L-9.069,0L-0.122,0L-0.122,2.257L-6.006,2.257L-6.006,4.838L-0.395,4.838L-0.395,7.09L-6.006,7.09L-6.006,10.045L0,10.045L0,12.302Z" style="fill:rgb(26,24,27);fill-rule:nonzero;"/>
    </g>
    <g transform="matrix(4.16667,0,0,4.16667,822.938,63.9006)">
        <path d="M0,-2.092L1.427,-2.092C2.824,-2.092 3.341,-2.599 3.341,-3.518C3.341,-4.56 2.74,-4.94 1.079,-4.94L0,-4.94L0,-2.092ZM2.412,-7.197C5.227,-7.197 6.493,-5.231 6.493,-3.551C6.493,-1.82 5.265,0.16 2.431,0.16L0,0.16L0,5.105L-3.068,5.105L-3.068,-7.197L2.412,-7.197Z" style="fill:rgb(26,24,27);fill-rule:nonzero;"/>
    </g>
    <g transform="matrix(4.16667,0,0,4.16667,906.609,85.834)">
        <path d="M0,-12.461L0,-5.48C0,-1.402 -2.778,0 -6.156,0C-9.722,0 -12.302,-1.656 -12.302,-5.461L-12.302,-12.461L-9.243,-12.461L-9.243,-5.39C-9.243,-3.622 -7.958,-2.557 -6.193,-2.557C-4.57,-2.557 -3.068,-3.406 -3.068,-5.606L-3.068,-12.461L0,-12.461Z" style="fill:rgb(26,24,27);fill-rule:nonzero;"/>
    </g>
    <g transform="matrix(4.16667,0,0,4.16667,927.292,43.3169)">
        <path d="M0,7.788L1.727,7.788C3.425,7.788 4.016,7.338 4.016,6.273C4.016,5.372 3.228,4.889 2.148,4.889L0,4.889L0,7.788ZM0,2.632L1.604,2.632C2.721,2.632 3.171,1.947 3.171,1.295C3.171,0.666 2.721,-0 1.604,-0L0,-0L0,2.632ZM2.252,-2.257C5.151,-2.257 6.324,-0.544 6.324,0.83C6.324,1.858 5.677,2.777 4.653,3.28C6.399,3.735 7.271,4.996 7.271,6.437C7.271,7.845 6.512,10.045 2.918,10.045L-3.068,10.045L-3.068,-2.257L2.252,-2.257Z" style="fill:rgb(26,24,27);fill-rule:nonzero;"/>
    </g>
    <g transform="matrix(4.16667,0,0,4.16667,1002.91,33.9119)">
        <path d="M0,12.302L-9.374,12.302L-9.374,0L-6.306,0L-6.306,10.045L0,10.045L0,12.302Z" style="fill:rgb(26,24,27);fill-rule:nonzero;"/>
    </g>
    <g transform="matrix(-4.16667,0,0,4.16667,2098.62,-49.8802)">
        <rect x="258.618" y="20.11" width="3.068" height="12.302" style="fill:rgb(26,24,27);"/>
    </g>
    <g transform="matrix(4.16667,0,0,4.16667,1076.61,38.354)">
        <path d="M0,10.171C-1.717,11.053 -3.012,11.396 -4.832,11.396C-9.609,11.396 -11.993,8.299 -11.993,5.123C-11.993,1.838 -9.31,-1.225 -4.598,-1.225C-2.881,-1.225 -1.352,-0.864 -0.141,-0.146L-0.141,2.599C-1.501,1.838 -2.862,1.337 -4.382,1.337C-7.001,1.337 -8.84,2.885 -8.84,5.067C-8.84,7.267 -7.02,8.838 -4.457,8.838C-2.843,8.838 -1.764,8.332 0,7.483L0,10.171Z" style="fill:rgb(26,24,27);fill-rule:nonzero;"/>
    </g>
</svg>
